
<svg xmlns="http://www.w3.org/2000/svg" xmlns:xlink="http://www.w3.org/1999/xlink" version="1.1" id="Layer_1" x="0" y="0" viewBox="402 290.5 200 200" enable-background="new 402 290.5 200 200" xml:space="preserve">
  <path display="none" fill="#27DDED" stroke="#ffffff" stroke-width="4" stroke-miterlimit="10" d="M434 290.5c0-4.4 3.6-8 8-8s8 3.6 8 8 -3.6 8-8 8S434 294.9 434 290.5z"/>
  <path display="none" fill="#FFFFFF" stroke="#ffffff" stroke-width="2" stroke-miterlimit="10" d="M434 450.5c0-4.4 3.6-8 8-8s8 3.6 8 8 -3.6 8-8 8S434 454.9 434 450.5z"/>
  <path display="none" fill="#FFFFFF" stroke="#ffffff" stroke-width="2" stroke-miterlimit="10" d="M554 450.5c0-4.4 3.6-8 8-8s8 3.6 8 8 -3.6 8-8 8S554 454.9 554 450.5z"/>
  <path display="none" fill="#FFFFFF" stroke="#ffffff" stroke-width="2" stroke-miterlimit="10" d="M554 290.5c0-4.4 3.6-8 8-8s8 3.6 8 8 -3.6 8-8 8S554 294.9 554 290.5z"/>
  <path display="none" fill="#FFFFFF" stroke="#ffffff" stroke-width="2" stroke-miterlimit="10" d="M594 290.5c0-4.4 3.6-8 8-8s8 3.6 8 8 -3.6 8-8 8S594 294.9 594 290.5z"/>
  <path display="none" fill="#FFFFFF" stroke="#ffffff" stroke-width="2" stroke-miterlimit="10" d="M594 450.5c0-4.4 3.6-8 8-8s8 3.6 8 8 -3.6 8-8 8S594 454.9 594 450.5z"/>
  <path display="none" fill="#FFFFFF" stroke="#ffffff" stroke-width="2" stroke-miterlimit="10" d="M554 490.5c0-4.4 3.6-8 8-8s8 3.6 8 8 -3.6 8-8 8S554 494.9 554 490.5z"/>
  <path display="none" fill="#FFFFFF" stroke="#ffffff" stroke-width="2" stroke-miterlimit="10" d="M434 490.5c0-4.4 3.6-8 8-8s8 3.6 8 8 -3.6 8-8 8S434 494.9 434 490.5z"/>
  <path display="none" fill="#FFFFFF" stroke="#ffffff" stroke-width="2" stroke-miterlimit="10" d="M394 450.5c0-4.4 3.6-8 8-8s8 3.6 8 8 -3.6 8-8 8S394 454.9 394 450.5z"/>
  <path display="none" fill="#FFFFFF" stroke="#ffffff" stroke-width="2" stroke-miterlimit="10" d="M394 290.5c0-4.4 3.6-8 8-8s8 3.6 8 8 -3.6 8-8 8S394 294.9 394 290.5z"/>
  <polyline points="442 290.5 442 450.5 562 450.5 562 290.5 602 290.5 602 450.5 562 490.5 442 490.5 402 450.5 402 290.5 "/>
</svg>
